<?xml version="1.0" encoding="UTF-8" standalone="no"?>
<!-- Created with Inkscape (http://www.inkscape.org/) -->

<svg
   width="450"
   height="400"
   viewBox="0 0 119.06251 105.83333"
   version="1.1"
   id="svg497"
   inkscape:version="1.2.2 (732a01da63, 2022-12-09)"
   sodipodi:docname="bbl.svg"
   xmlns:inkscape="http://www.inkscape.org/namespaces/inkscape"
   xmlns:sodipodi="http://sodipodi.sourceforge.net/DTD/sodipodi-0.dtd"
   xmlns="http://www.w3.org/2000/svg"
   xmlns:svg="http://www.w3.org/2000/svg">
  <sodipodi:namedview
     id="namedview499"
     pagecolor="#505050"
     bordercolor="#eeeeee"
     borderopacity="1"
     inkscape:showpageshadow="0"
     inkscape:pageopacity="0"
     inkscape:pagecheckerboard="0"
     inkscape:deskcolor="#505050"
     inkscape:document-units="mm"
     showgrid="false"
     inkscape:zoom="0.95325287"
     inkscape:cx="220.29831"
     inkscape:cy="277.47097"
     inkscape:window-width="1368"
     inkscape:window-height="842"
     inkscape:window-x="-6"
     inkscape:window-y="-6"
     inkscape:window-maximized="1"
     inkscape:current-layer="svg497" />
  <defs
     id="defs494" />
  <g
     inkscape:label="Layer 1"
     inkscape:groupmode="layer"
     id="layer1" />
  <path
     style="fill:#2c0052;fill-opacity:1;stroke-width:2.56721"
     d="m 24.685046,22.445958 c 2.13988,-3.990485 6.895259,-6.637253 11.341535,-8.61337 6.143976,-2.730647 13.046756,-4.0959254 18.396404,-1.932676 23.248208,9.400932 -23.123732,37.245984 -7.217446,44.03405 10.279706,4.3869 47.898355,-15.566685 65.385451,3.056261 12.49058,13.301869 -7.3453,26.586042 -23.600623,40.455149 C 79.129574,107.85864 33.091189,108.35246 7.8581689,100.21017 -2.9517704,96.96904 -9.4685555,70.625074 3.996703,43.686131 9.2891719,33.09788 21.325315,24.529152 30.61529,16.34799"
     id="path95625"
     sodipodi:nodetypes="cssssscsc" />
  <path
     style="fill:#4e03b0;fill-opacity:0.960784;stroke-width:1.96005"
     d="m 22.733208,30.250757 c 1.63382,-3.046704 5.264488,-5.067501 8.65919,-6.576254 4.690887,-2.084832 9.961115,-3.127215 14.045538,-1.475587 17.749859,7.177554 -11.431366,23.251747 -5.510475,33.619717 9.095082,15.926246 49.813211,-6.323518 63.164489,7.894982 9.53648,10.155894 -16.488614,31.703356 -22.247365,34.84655 C 75.941773,101.23617 62.883278,102.96056 49.83268,103.18535 5.5754522,103.94766 -11.680709,99.297991 7.1797783,49.287683 10.368925,40.831369 20.168075,31.841261 27.260913,25.594997"
     id="path95625-9"
     sodipodi:nodetypes="csssssssc" />
  <path
     style="fill:#6204d7;fill-opacity:1;stroke-width:1.5212"
     d="m 20.067641,40.849596 c 1.248449,-2.438392 3.999707,-4.068062 6.570309,-5.288112 3.552134,-1.685895 4.778404,-2.852665 7.854479,-1.554907 13.367843,5.639718 -6.727862,20.70976 -1.56566,27.156067 C 45.907116,77.371871 83.993196,58.221397 92.316805,72.102695 97.856423,81.341131 79.572018,90.6982 75.208425,93.233562 71.493407,95.392094 52.060508,99.193611 42.259082,100.2518 8.8035819,103.86379 -6.252637,96.097985 8.2311589,56.111478 10.680244,49.350099 18.123036,42.13084 23.509022,37.113568"
     id="path95625-9-9"
     sodipodi:nodetypes="csssssssc" />
</svg>
