<?xml version="1.0" encoding="UTF-8" standalone="no"?>
<!-- Created with Inkscape (http://www.inkscape.org/) -->

<svg
   width="450"
   height="400"
   viewBox="0 0 119.0625 105.83333"
   version="1.1"
   id="svg334"
   inkscape:version="1.2.2 (732a01da63, 2022-12-09)"
   sodipodi:docname="blobr.svg"
   xmlns:inkscape="http://www.inkscape.org/namespaces/inkscape"
   xmlns:sodipodi="http://sodipodi.sourceforge.net/DTD/sodipodi-0.dtd"
   xmlns="http://www.w3.org/2000/svg"
   xmlns:svg="http://www.w3.org/2000/svg">
  <sodipodi:namedview
     id="namedview336"
     pagecolor="#505050"
     bordercolor="#eeeeee"
     borderopacity="1"
     inkscape:showpageshadow="0"
     inkscape:pageopacity="0"
     inkscape:pagecheckerboard="0"
     inkscape:deskcolor="#505050"
     inkscape:document-units="mm"
     showgrid="false"
     inkscape:zoom="0.90028971"
     inkscape:cx="219.37383"
     inkscape:cy="201.60177"
     inkscape:window-width="1368"
     inkscape:window-height="842"
     inkscape:window-x="-6"
     inkscape:window-y="-6"
     inkscape:window-maximized="1"
     inkscape:current-layer="layer1" />
  <defs
     id="defs331" />
  <g
     inkscape:label="Layer 1"
     inkscape:groupmode="layer"
     id="layer1">
    <path
       style="fill:#6251df;fill-opacity:0.59;stroke-width:2.89602"
       d="M 134.01768,19.082065 C 129.31147,-0.28850754 52.973912,-4.7608259 64.013284,17.492609 c 6.931326,13.972326 31.897803,13.050008 35.516304,28.463985 2.892852,12.322931 -15.2724,19.066991 -11.252276,30.659518 1.871062,5.39543 8.591878,7.291507 11.366977,12.544753 3.715431,7.03329 6.720051,15.006615 16.029051,15.722785 3.63688,0.27982 8.81465,-0.66161 11.61739,-3.11681 4.51417,-3.954412 3.40775,-12.620494 7.92582,-17.553561 5.2581,-5.741047 15.32219,-4.721331 17.91904,-13.280197 3.36518,-11.091215 -9.2419,-44.852652 -19.11791,-51.851017 z"
       id="path438" />
    <path
       style="fill:#6251df;fill-opacity:0.59;stroke-width:2.35284"
       d="M 132.85852,22.498856 C 129.03504,6.7614888 67.015547,3.1280178 75.984343,21.207529 c 5.631263,11.35163 25.914967,10.602315 28.854757,23.125192 2.35027,10.011608 -12.407857,15.490735 -9.141756,24.908945 1.520119,4.383419 6.980356,5.923883 9.234946,10.1918 3.01856,5.714119 5.45963,12.191941 13.02262,12.773771 2.95471,0.22731 7.16134,-0.537506 9.43837,-2.532206 3.66755,-3.212629 2.7686,-10.253336 6.43924,-14.261153 4.27187,-4.664247 12.44831,-3.835794 14.55809,-10.78933 2.73401,-9.010908 -7.50847,-36.439957 -15.53209,-42.125692 z"
       id="path438-5" />
    <path
       style="fill:#6251df;fill-opacity:0.59;stroke-width:1.90061"
       d="M 131.4154,25.768195 C 128.3268,13.055599 78.227669,10.120492 85.472629,24.725071 c 4.548924,9.169803 20.934031,8.564515 23.308791,18.680451 1.89852,8.087346 -10.023029,12.513377 -7.38468,20.121356 1.22794,3.540922 5.6387,4.785298 7.45996,8.232927 2.43837,4.615839 4.41026,9.848598 10.51963,10.318608 2.38683,0.183614 5.78491,-0.434198 7.62429,-2.045503 2.96264,-2.59517 2.23644,-8.282637 5.20159,-11.520133 3.4508,-3.767753 10.0557,-3.098541 11.75996,-8.715585 2.20853,-7.278986 -6.06531,-29.436077 -12.54677,-34.028997 z"
       id="path438-5-4" />
  </g>
</svg>
