<?xml version="1.0" encoding="UTF-8" standalone="no"?>
<!-- Created with Inkscape (http://www.inkscape.org/) -->

<svg
   width="450"
   height="400"
   viewBox="0 0 119.0625 105.83333"
   version="1.1"
   id="svg334"
   inkscape:version="1.2.2 (732a01da63, 2022-12-09)"
   sodipodi:docname="blobl.svg"
   xmlns:inkscape="http://www.inkscape.org/namespaces/inkscape"
   xmlns:sodipodi="http://sodipodi.sourceforge.net/DTD/sodipodi-0.dtd"
   xmlns="http://www.w3.org/2000/svg"
   xmlns:svg="http://www.w3.org/2000/svg">
  <sodipodi:namedview
     id="namedview336"
     pagecolor="#505050"
     bordercolor="#eeeeee"
     borderopacity="1"
     inkscape:showpageshadow="0"
     inkscape:pageopacity="0"
     inkscape:pagecheckerboard="0"
     inkscape:deskcolor="#505050"
     inkscape:document-units="mm"
     showgrid="false"
     inkscape:zoom="0.90028971"
     inkscape:cx="219.9292"
     inkscape:cy="201.60177"
     inkscape:window-width="1368"
     inkscape:window-height="842"
     inkscape:window-x="-6"
     inkscape:window-y="-6"
     inkscape:window-maximized="1"
     inkscape:current-layer="layer1" />
  <defs
     id="defs331" />
  <g
     inkscape:label="Layer 1"
     inkscape:groupmode="layer"
     id="layer1">
    <path
       style="fill:#6251df;fill-opacity:0.59;stroke-width:2.89602"
       d="m -12.622272,88.151488 c 4.7062101,19.370572 81.043773,23.842892 70.004393,1.589456 -6.93132,-13.972326 -31.8978,-13.050008 -35.5163,-28.463985 -2.89285,-12.322931 15.2724,-19.066991 11.25228,-30.659518 -1.87107,-5.39543 -8.59188,-7.291507 -11.36698,-12.544753 -3.71543,-7.033289 -6.72005,-15.0066152 -16.02905,-15.7227852 -3.636883,-0.27982 -8.8146529,0.66161 -11.6173929,3.11681 -4.5141701,3.954413 -3.40775,12.6204942 -7.9258201,17.5535612 -5.2581,5.741047 -15.32219,4.721331 -17.91904,13.280197 -3.36518,11.091215 9.2419,44.852652 19.11791,51.851017 z"
       id="path438" />
    <path
       style="fill:#6251df;fill-opacity:0.59;stroke-width:2.35284"
       d="m -11.463112,84.734697 c 3.8234801,15.737373 65.842973,19.370833 56.874173,1.291327 -5.63126,-11.35163 -25.91496,-10.602315 -28.85475,-23.125192 -2.35027,-10.011608 12.40785,-15.490735 9.14175,-24.908945 -1.52012,-4.383419 -6.98035,-5.923883 -9.23494,-10.1918 -3.01856,-5.714119 -5.45963,-12.191941 -13.022623,-12.773771 -2.95471002,-0.22731 -7.1613399,0.537506 -9.4383699,2.532206 -3.66755,3.212629 -2.7686,10.253336 -6.4392401,14.261153 -4.27187,4.664247 -12.44831,3.835794 -14.55809,10.78933 -2.73401,9.010908 7.50847,36.439957 15.53209,42.125692 z"
       id="path438-5" />
    <path
       style="fill:#6251df;fill-opacity:0.59;stroke-width:1.90061"
       d="m -10.019992,81.465358 c 3.0886001,12.712596 53.187733,15.647704 45.942773,1.043124 -4.54893,-9.169803 -20.93403,-8.564515 -23.30879,-18.680451 -1.89852,-8.087346 10.02303,-12.513377 7.38468,-20.121356 -1.22794,-3.540922 -5.6387,-4.785298 -7.45996,-8.232927 -2.43837,-4.615839 -4.41026,-9.848598 -10.519633,-10.318608 -2.38682992,-0.183614 -5.7849099,0.434198 -7.6242899,2.045503 -2.96264,2.59517 -2.23644,8.282637 -5.2015901,11.520133 -3.4508,3.767753 -10.0557,3.098541 -11.75996,8.715585 -2.20853,7.278986 6.06531,29.436077 12.54677,34.028997 z"
       id="path438-5-4" />
  </g>
</svg>
