<?xml version="1.0" encoding="UTF-8" standalone="no"?>
<!-- Created with Inkscape (http://www.inkscape.org/) -->

<svg
   width="450"
   height="400"
   viewBox="0 0 119.0625 105.83333"
   version="1.1"
   id="svg834"
   sodipodi:docname="btl.svg"
   inkscape:version="1.2.2 (732a01da63, 2022-12-09)"
   xmlns:inkscape="http://www.inkscape.org/namespaces/inkscape"
   xmlns:sodipodi="http://sodipodi.sourceforge.net/DTD/sodipodi-0.dtd"
   xmlns="http://www.w3.org/2000/svg"
   xmlns:svg="http://www.w3.org/2000/svg">
  <sodipodi:namedview
     id="namedview8"
     pagecolor="#505050"
     bordercolor="#eeeeee"
     borderopacity="1"
     inkscape:showpageshadow="0"
     inkscape:pageopacity="0"
     inkscape:pagecheckerboard="0"
     inkscape:deskcolor="#505050"
     showgrid="false"
     inkscape:zoom="0.59"
     inkscape:cx="212.71186"
     inkscape:cy="200.84746"
     inkscape:window-width="1368"
     inkscape:window-height="842"
     inkscape:window-x="-6"
     inkscape:window-y="-6"
     inkscape:window-maximized="1"
     inkscape:current-layer="layer1" />
  <defs
     id="defs831" />
  <g
     id="layer1">
    <path
       style="fill:#3c0050;fill-opacity:1;stroke-width:2.88125"
       d="M 53.617436,9.4734975 C 38.991441,10.937425 25.406104,17.283435 15.056353,27.588492 -0.57502934,43.152376 -6.5185897,84.90011 19.355094,96.221208 53.616737,111.21247 31.655234,61.166865 57.30611,61.8659 c 16.607493,0.452584 20.134997,36.149429 45.1964,21.468851 4.36431,-2.556531 10.04799,-9.836335 9.96797,-15.139568 C 112.32495,58.549682 99.65807,55.055287 98.919556,44.279245 98.308837,35.368008 112.86718,25.004815 103.44903,16.525072 91.003813,5.3198601 69.32717,7.9123048 53.617436,9.4734975 Z"
       id="path432" />
    <path
       style="fill:#720264;fill-opacity:0.658824;stroke-width:2.63006"
       d="M 50.682983,7.2145454 C 37.332115,8.5508446 24.93118,14.343587 15.483751,23.750222 1.2151477,37.957213 -4.2102359,76.065268 19.407725,86.399374 50.682344,100.08366 30.821896,58.056002 54.050075,55.039245 75.039485,52.313248 78.184462,88.59634 96.651497,81.363084 104.67284,78.221244 108.35669,74.011555 107.09576,67.094962 105.46022,58.12353 92.709688,48.822392 92.035547,38.98584 91.478074,30.851501 104.76719,21.391789 96.170143,13.651332 84.809927,3.4230297 65.023105,5.7894484 50.682983,7.2145454 Z"
       id="path432-1"
       sodipodi:nodetypes="csssssssc" />
    <path
       style="fill:#7e165a;fill-opacity:0.937255;stroke-width:2.38356"
       d="M 49.248356,7.2788642 C 37.148776,8.4899202 25.910096,13.739747 17.348106,22.26476 4.4168059,35.140224 -0.50008411,69.676661 20.904326,79.042223 49.247776,91.443965 31.248706,53.355286 52.299876,50.62127 71.322076,48.150763 78.208323,79.687938 94.944553,73.132612 102.2141,70.285236 101.51669,67.815432 100.37393,61.547083 98.891676,53.416484 87.336166,44.987081 86.725216,36.072445 86.219996,28.700483 98.263596,20.127367 90.472306,13.112373 80.176806,3.8427012 62.244466,5.9873322 49.248356,7.2788642 Z"
       id="path432-1-13"
       sodipodi:nodetypes="csssssssc" />
  </g>
</svg>
