<?xml version="1.0" encoding="UTF-8" standalone="no"?>
<!-- Created with Inkscape (http://www.inkscape.org/) -->

<svg
   width="450"
   height="400"
   viewBox="0 0 119.06251 105.83333"
   version="1.1"
   id="svg497"
   inkscape:version="1.2.2 (732a01da63, 2022-12-09)"
   sodipodi:docname="bbl.svg"
   xmlns:inkscape="http://www.inkscape.org/namespaces/inkscape"
   xmlns:sodipodi="http://sodipodi.sourceforge.net/DTD/sodipodi-0.dtd"
   xmlns="http://www.w3.org/2000/svg"
   xmlns:svg="http://www.w3.org/2000/svg">
  <sodipodi:namedview
     id="namedview499"
     pagecolor="#505050"
     bordercolor="#eeeeee"
     borderopacity="1"
     inkscape:showpageshadow="0"
     inkscape:pageopacity="0"
     inkscape:pagecheckerboard="0"
     inkscape:deskcolor="#505050"
     inkscape:document-units="mm"
     showgrid="false"
     inkscape:zoom="0.95325287"
     inkscape:cx="218.72475"
     inkscape:cy="277.47097"
     inkscape:window-width="1368"
     inkscape:window-height="842"
     inkscape:window-x="-6"
     inkscape:window-y="-6"
     inkscape:window-maximized="1"
     inkscape:current-layer="svg497" />
  <defs
     id="defs494" />
  <g
     inkscape:label="Layer 1"
     inkscape:groupmode="layer"
     id="layer1" />
  <path
     style="fill:#2c0052;fill-opacity:1;stroke-width:2.56721"
     d="M 22.359662,23.04704 C 24.040976,18.842728 28.471376,15.681942 32.669424,13.222105 38.470394,9.8230417 45.17776,7.696166 50.735356,9.2490667 74.887256,15.997582 31.911401,48.842363 48.475705,53.813437 59.180667,57.026076 94.338304,33.000072 113.79393,49.555774 127.69057,61.381067 109.4606,76.795331 94.854096,92.391405 85.993507,101.85228 40.297635,107.47937 14.313737,102.20308 3.2096819,100.18821 -6.2055298,74.735777 4.1701737,46.462741 8.2483054,35.350129 19.253321,25.492063 27.572552,16.325523"
     id="path95625"
     sodipodi:nodetypes="cssssscsc" />
  <path
     style="fill:#4e03b0;fill-opacity:0.960784;stroke-width:1.96005"
     d="m 21.290765,31.020873 c 1.283709,-3.209963 4.666256,-5.623206 7.871438,-7.501275 4.429004,-2.595164 9.550034,-4.219021 13.793225,-3.033391 18.439822,5.152449 -8.765877,24.381945 -1.72523,34.024613 10.815141,14.812108 48.79673,-11.841539 63.650972,0.798635 10.61,9.028536 -12.848638,33.345012 -18.220761,37.111067 -4.57365,3.206295 -17.358236,6.376811 -30.302278,8.056208 C 12.462251,106.17191 -5.2049277,103.47648 7.9583238,51.674196 10.184117,42.914873 18.919094,32.887631 25.270775,25.889038"
     id="path95625-9"
     sodipodi:nodetypes="csssssssc" />
  <path
     style="fill:#6204d7;fill-opacity:1;stroke-width:1.5212"
     d="m 19.824318,41.850932 c 0.968611,-2.562454 3.520875,-4.4889 5.939312,-5.988127 3.341868,-2.07167 4.430309,-3.367966 7.631968,-2.421498 13.913591,4.113102 -4.37534,21.331073 1.473828,27.161205 14.707722,14.659857 50.419471,-8.6202 60.239806,4.245798 C 101.64497,73.411032 84.518653,84.749616 80.465164,87.755982 77.01416,90.315511 58.126704,96.26136 48.504529,98.406463 15.66087,105.72841 -0.16775804,99.690869 9.7644492,58.338091 11.4439,51.345687 18.034797,43.34113 22.827397,37.754284"
     id="path95625-9-9"
     sodipodi:nodetypes="csssssssc" />
</svg>
