<?xml version="1.0" encoding="UTF-8" standalone="no"?>
<!-- Created with Inkscape (http://www.inkscape.org/) -->

<svg
   width="450"
   height="400"
   viewBox="0 0 119.06251 105.83333"
   version="1.1"
   id="svg497"
   inkscape:version="1.2.2 (732a01da63, 2022-12-09)"
   sodipodi:docname="blobdownleft.svg"
   xmlns:inkscape="http://www.inkscape.org/namespaces/inkscape"
   xmlns:sodipodi="http://sodipodi.sourceforge.net/DTD/sodipodi-0.dtd"
   xmlns="http://www.w3.org/2000/svg"
   xmlns:svg="http://www.w3.org/2000/svg">
  <sodipodi:namedview
     id="namedview499"
     pagecolor="#505050"
     bordercolor="#eeeeee"
     borderopacity="1"
     inkscape:showpageshadow="0"
     inkscape:pageopacity="0"
     inkscape:pagecheckerboard="0"
     inkscape:deskcolor="#505050"
     inkscape:document-units="mm"
     showgrid="false"
     inkscape:zoom="0.90028971"
     inkscape:cx="249.91955"
     inkscape:cy="224.9276"
     inkscape:window-width="1368"
     inkscape:window-height="842"
     inkscape:window-x="-6"
     inkscape:window-y="-6"
     inkscape:window-maximized="1"
     inkscape:current-layer="layer1" />
  <defs
     id="defs494" />
  <g
     inkscape:label="Layer 1"
     inkscape:groupmode="layer"
     id="layer1">
    <path
       style="fill:#3c0050;fill-opacity:1;stroke-width:2.58415"
       d="M 14.499087,36.041456 C 4.6057498,19.987328 38.140206,-8.8160836 47.498705,11.633304 c 5.79257,12.657459 -11.077072,34.453967 -1.471637,42.85472 5.651543,4.942751 27.895872,0.973977 36.840837,4.006947 9.439559,3.200654 2.432003,16.974209 11.124595,18.642032 7.62375,1.462747 22.71946,-6.278545 22.37387,7.769548 C 116.13701,94.230992 98.122712,103.07712 89.616562,103.50284 77.333185,104.11761 69.478267,101.26595 57.474383,99.451815 46.43592,97.783606 31.541505,99.169363 20.939619,94.925104 -4.4882858,84.745531 10.308568,46.868474 16.220158,31.59473"
       id="path434-7-0-1-3"
       sodipodi:nodetypes="cssssssssc" />
    <path
       style="fill:#501c48;fill-opacity:1;stroke-width:2.54071"
       d="M 14.500133,37.465604 C 4.7339739,21.744723 37.280458,-4.3339946 39.248535,17.601563 40.58352,32.480892 25.809217,53.203814 35.291176,61.43018 c 5.578892,4.840155 31.920393,-0.909688 40.750369,2.06034 9.318212,3.134219 0.522257,20.65933 9.103108,22.292535 7.525745,1.432382 23.679717,-9.875117 23.338557,3.88137 C 108.2568,98.795326 95.398633,103.8566 87.00183,104.27349 74.876352,104.87548 64.531699,97.589668 52.597274,96.507997 34.573271,94.874404 32.144361,98.031453 21.678763,93.875296 -3.4222786,83.907053 9.7373236,52.726494 15.572918,37.769794"
       id="path434-7-0-1-3-5"
       sodipodi:nodetypes="cssssssssc" />
    <path
       style="fill:#643440;fill-opacity:1;stroke-width:2.50039"
       d="M 12.980335,38.385658 C 9.1708002,20.8556 30.729125,1.3551706 32.665973,22.94265 33.979772,37.585866 19.439916,57.979957 28.77141,66.075787 c 5.490364,4.763337 31.413869,-0.895255 40.103727,2.027633 9.170348,3.084491 0.513971,20.331511 8.958658,21.938801 7.406322,1.409645 23.303955,-9.718414 22.968215,3.819775 -0.22281,8.985994 -9.085355,10.616474 -17.348903,11.026754 -11.933066,0.59244 -23.325428,-4.19468 -35.07047,-5.259187 C 30.644643,98.021902 25.674531,102.09624 15.375005,98.00605 -9.3277239,88.195968 5.8486793,57.406541 11.591672,42.687173"
       id="path434-7-0-1-3-5-3"
       sodipodi:nodetypes="cssssssssc" />
  </g>
</svg>
