<?xml version="1.0" encoding="UTF-8" standalone="no"?>
<!-- Created with Inkscape (http://www.inkscape.org/) -->

<svg
   width="450"
   height="400"
   viewBox="0 0 119.06251 105.83333"
   version="1.1"
   id="svg671"
   inkscape:version="1.2.2 (732a01da63, 2022-12-09)"
   sodipodi:docname="bbr.svg"
   xmlns:inkscape="http://www.inkscape.org/namespaces/inkscape"
   xmlns:sodipodi="http://sodipodi.sourceforge.net/DTD/sodipodi-0.dtd"
   xmlns="http://www.w3.org/2000/svg"
   xmlns:svg="http://www.w3.org/2000/svg">
  <sodipodi:namedview
     id="namedview673"
     pagecolor="#505050"
     bordercolor="#eeeeee"
     borderopacity="1"
     inkscape:showpageshadow="0"
     inkscape:pageopacity="0"
     inkscape:pagecheckerboard="0"
     inkscape:deskcolor="#505050"
     inkscape:document-units="mm"
     showgrid="false"
     inkscape:zoom="0.90028971"
     inkscape:cx="218.81845"
     inkscape:cy="201.60177"
     inkscape:window-width="1368"
     inkscape:window-height="842"
     inkscape:window-x="-6"
     inkscape:window-y="-6"
     inkscape:window-maximized="1"
     inkscape:current-layer="layer1" />
  <defs
     id="defs668" />
  <g
     inkscape:label="Layer 1"
     inkscape:groupmode="layer"
     id="layer1">
    <path
       style="fill:#2b0050;fill-opacity:1;stroke-width:3.21297"
       d="M 123.10327,10.256133 C 111.06513,-5.0542542 85.410719,14.125017 88.973031,30.784256 98.73504,76.436655 38.126759,60.29272 39.446239,91.743543 c 0.346614,8.261547 26.139439,11.803927 31.804616,11.106927 20.354228,-2.50438 42.030915,10.89097 60.790385,-4.153675 16.39792,-13.150711 5.92687,-75.757767 -8.93797,-88.440662 z"
       id="path263" />
    <path
       style="fill:#4e03b0;fill-opacity:0.960784;stroke-width:2.73756"
       d="M 125.71077,21.288613 C 115.45393,8.2436932 93.595585,24.585025 96.630793,38.779219 104.94831,77.676463 53.308198,63.921347 54.432426,90.718406 c 0.295323,7.039092 22.271609,10.057324 27.09851,9.463454 17.342431,-2.133825 35.811654,9.27942 51.795304,-3.539061 13.97151,-11.204818 5.04985,-64.547951 -7.61547,-75.354186 z"
       id="path263-4" />
    <path
       style="fill:#6204d7;fill-opacity:1;stroke-width:2.15027"
       d="m 129.63109,34.41792 c -8.05642,-10.246363 -25.22548,2.589237 -22.84142,13.738307 6.53314,30.552576 -34.02854,19.748359 -33.145493,40.796608 0.231969,5.528974 17.493644,7.899711 21.285031,7.43323 13.621922,-1.676028 28.128932,7.288705 40.683562,-2.779803 10.9742,-8.801039 3.96652,-50.700388 -5.98168,-59.188342 z"
       id="path263-4-5" />
  </g>
</svg>
