<?xml version="1.0" encoding="UTF-8" standalone="no"?>
<!-- Created with Inkscape (http://www.inkscape.org/) -->

<svg
   width="450"
   height="400"
   viewBox="0 0 119.06251 105.83333"
   version="1.1"
   id="svg671"
   inkscape:version="1.2.2 (732a01da63, 2022-12-09)"
   sodipodi:docname="bbr.svg"
   xmlns:inkscape="http://www.inkscape.org/namespaces/inkscape"
   xmlns:sodipodi="http://sodipodi.sourceforge.net/DTD/sodipodi-0.dtd"
   xmlns="http://www.w3.org/2000/svg"
   xmlns:svg="http://www.w3.org/2000/svg">
  <sodipodi:namedview
     id="namedview673"
     pagecolor="#505050"
     bordercolor="#eeeeee"
     borderopacity="1"
     inkscape:showpageshadow="0"
     inkscape:pageopacity="0"
     inkscape:pagecheckerboard="0"
     inkscape:deskcolor="#505050"
     inkscape:document-units="mm"
     showgrid="false"
     inkscape:zoom="0.90028971"
     inkscape:cx="225.48297"
     inkscape:cy="201.60177"
     inkscape:window-width="1368"
     inkscape:window-height="842"
     inkscape:window-x="-6"
     inkscape:window-y="-6"
     inkscape:window-maximized="1"
     inkscape:current-layer="layer1" />
  <defs
     id="defs668" />
  <g
     inkscape:label="Layer 1"
     inkscape:groupmode="layer"
     id="layer1">
    <path
       style="fill:#542044;fill-opacity:1;stroke-width:3.21297"
       d="M 124.04491,12.219117 C 115.00892,-5.034148 86.280362,9.1314138 86.736799,26.161151 87.987577,72.828849 31.352506,45.875942 26.899552,77.037883 c -1.169699,8.185669 23.54071,16.384081 29.237833,16.734585 20.46902,1.259231 39.331251,18.391972 60.525145,7.030722 18.52587,-9.930992 19.67785,-73.397195 7.38238,-88.584073 z"
       id="path263" />
    <path
       style="fill:#3c0050;fill-opacity:1;stroke-width:2.73756"
       d="M 124.5914,23.542374 C 116.89246,8.8420618 92.41485,20.911561 92.803755,35.421433 93.86944,75.183739 45.614624,52.219048 41.820562,78.769967 c -0.996619,6.974438 20.057414,13.959745 24.911533,14.258391 17.44024,1.072887 33.511445,15.670502 51.569305,5.990405 15.7846,-8.461529 16.76611,-62.536686 6.29,-75.476389 z"
       id="path263-4" />
    <path
       style="fill:#603040;fill-opacity:1;stroke-width:2.15027"
       d="m 126.04519,37.167133 c -6.04728,-11.54662 -25.27368,-2.066414 -24.96821,9.330612 0.83706,31.232055 -37.065576,13.194005 -40.045693,34.048919 -0.782809,5.478192 15.754463,10.964943 19.567231,11.199507 13.698752,0.842739 26.322192,12.308699 40.506052,4.705284 12.39832,-6.646267 13.16927,-49.120596 4.94062,-59.284322 z"
       id="path263-4-5" />
  </g>
</svg>
