<?xml version="1.0" encoding="UTF-8" standalone="no"?>
<!-- Created with Inkscape (http://www.inkscape.org/) -->

<svg
   width="450"
   height="400"
   viewBox="0 0 119.06251 105.83333"
   version="1.1"
   id="svg671"
   inkscape:version="1.2.2 (732a01da63, 2022-12-09)"
   sodipodi:docname="bbr.svg"
   xmlns:inkscape="http://www.inkscape.org/namespaces/inkscape"
   xmlns:sodipodi="http://sodipodi.sourceforge.net/DTD/sodipodi-0.dtd"
   xmlns="http://www.w3.org/2000/svg"
   xmlns:svg="http://www.w3.org/2000/svg">
  <sodipodi:namedview
     id="namedview673"
     pagecolor="#505050"
     bordercolor="#eeeeee"
     borderopacity="1"
     inkscape:showpageshadow="0"
     inkscape:pageopacity="0"
     inkscape:pagecheckerboard="0"
     inkscape:deskcolor="#505050"
     inkscape:document-units="mm"
     showgrid="false"
     inkscape:zoom="0.90028971"
     inkscape:cx="218.26307"
     inkscape:cy="201.60177"
     inkscape:window-width="1368"
     inkscape:window-height="842"
     inkscape:window-x="-6"
     inkscape:window-y="-6"
     inkscape:window-maximized="1"
     inkscape:current-layer="layer1" />
  <defs
     id="defs668" />
  <g
     inkscape:label="Layer 1"
     inkscape:groupmode="layer"
     id="layer1">
    <path
       style="fill:#2b0050;fill-opacity:1;stroke-width:3.21297"
       d="m 117.35835,11.17025 c -10.80682,-16.2029943 -37.879501,0.9161 -35.6279,17.802503 6.170186,46.274909 -52.99368,25.451184 -54.132196,56.909078 -0.299057,8.263405 25.138736,13.807505 30.841027,13.554645 20.48758,-0.908589 41.053006,14.137274 60.929149,0.602204 17.37402,-11.831159 11.81986,-75.064358 -2.01008,-88.86843 z"
       id="path263" />
    <path
       style="fill:#4e03b0;fill-opacity:0.960784;stroke-width:2.73756"
       d="M 119.0971,22.372551 C 109.88936,8.5671008 86.822612,23.1531 88.741053,37.540845 93.998224,76.968486 43.5888,59.226045 42.618739,86.029127 42.363932,93.069802 64.03772,97.793548 68.896243,97.578109 86.352295,96.80395 103.87468,109.62348 120.80978,98.09121 135.61296,88.010689 130.88064,34.134062 119.0971,22.372551 Z"
       id="path263-4" />
    <path
       style="fill:#6204d7;fill-opacity:1;stroke-width:2.15027"
       d="M 121.98104,35.767716 C 114.74866,24.923982 96.630437,36.380821 98.137307,47.68192 102.26665,78.651106 62.671632,64.71497 61.90968,85.76795 c -0.20014,5.530218 16.823931,9.240584 20.640157,9.071349 13.71117,-0.608056 27.474463,9.461271 40.776433,0.40304 11.62745,-7.917938 7.91036,-50.23633 -1.34523,-59.474623 z"
       id="path263-4-5" />
  </g>
</svg>
