<?xml version="1.0" encoding="UTF-8" standalone="no"?>
<!-- Created with Inkscape (http://www.inkscape.org/) -->

<svg
   width="1200"
   height="900"
   viewBox="0 0 317.49974 238.12466"
   version="1.1"
   id="svg5"
   inkscape:version="1.2.2 (732a01da63, 2022-12-09)"
   sodipodi:docname="blobs.svg"
   xmlns:inkscape="http://www.inkscape.org/namespaces/inkscape"
   xmlns:sodipodi="http://sodipodi.sourceforge.net/DTD/sodipodi-0.dtd"
   xmlns="http://www.w3.org/2000/svg"
   xmlns:svg="http://www.w3.org/2000/svg">
  <sodipodi:namedview
     id="namedview7"
     pagecolor="#505050"
     bordercolor="#eeeeee"
     borderopacity="1"
     inkscape:showpageshadow="0"
     inkscape:pageopacity="0"
     inkscape:pagecheckerboard="0"
     inkscape:deskcolor="#505050"
     inkscape:document-units="mm"
     showgrid="false"
     inkscape:zoom="0.51316815"
     inkscape:cx="388.76147"
     inkscape:cy="587.52673"
     inkscape:window-width="1368"
     inkscape:window-height="842"
     inkscape:window-x="-6"
     inkscape:window-y="-6"
     inkscape:window-maximized="1"
     inkscape:current-layer="layer1" />
  <defs
     id="defs2" />
  <g
     inkscape:label="Layer 1"
     inkscape:groupmode="layer"
     id="layer1">
    <path
       style="fill:#3c0050;fill-opacity:1;stroke-width:2.70531"
       d="M -0.98599739,163.26236 C -11.343179,146.45554 23.763528,116.30169 33.560797,137.70984 c 6.064154,13.2509 -11.596416,36.06933 -1.540633,44.86395 5.916514,5.17449 29.203761,1.01964 38.568107,4.19481 9.882128,3.35072 2.546026,17.77004 11.64617,19.51606 7.981186,1.53133 23.784649,-6.57291 23.422859,8.13382 -0.24012,9.76162 -19.099013,19.0225 -28.003963,19.46818 C 64.794058,234.53025 56.570865,231.54489 44.004182,229.6457 32.448185,227.89927 16.85545,229.35 5.7564986,224.90676 -20.863586,214.24991 -5.3729864,174.597 0.81576563,158.60715"
       id="path434-7-0-1-3"
       sodipodi:nodetypes="cssssssssc" />
    <path
       style="fill:#501c48;fill-opacity:1;stroke-width:2.65983"
       d="M -0.98490239,164.75328 C -11.208943,148.29533 22.863472,120.99392 24.923821,143.95792 c 1.397575,15.57694 -14.069415,37.27145 -4.142899,45.88351 5.840457,5.06708 33.416971,-0.95234 42.660938,2.15693 9.755093,3.28117 0.546743,21.62794 9.529904,23.33772 7.878586,1.49954 24.789923,-10.33811 24.432773,4.06335 -0.23702,9.559 -13.698048,14.85758 -22.488523,15.29401 -12.693977,0.63022 -23.523636,-6.9972 -36.017601,-8.12958 -18.869054,-1.71018 -21.411843,1.59488 -32.3681164,-2.75613 -26.2778956,-10.43561 -12.5013099,-43.07806 -6.39211497,-58.736"
       id="path434-7-0-1-3-5"
       sodipodi:nodetypes="cssssssssc" />
    <path
       style="fill:#643440;fill-opacity:1;stroke-width:2.61762"
       d="m -2.5759534,165.71647 c -3.9881455,-18.35195 18.5809364,-38.76665 20.6085914,-16.16705 1.375397,15.32976 -13.8461564,36.68002 -4.077158,45.15542 5.747778,4.98667 32.886698,-0.93723 41.983978,2.1227 9.600295,3.2291 0.538067,21.28474 9.37868,22.96739 7.753565,1.47574 24.396549,-10.17406 24.045069,3.99887 -0.23326,9.40731 -9.511311,11.11424 -18.162296,11.54375 -12.492544,0.62022 -24.419033,-4.39136 -36.714739,-5.50577 -18.569633,-1.68304 -23.772768,2.58233 -34.55518337,-1.69963 C -25.929919,217.86213 -10.041976,185.62914 -4.0297234,170.21966"
       id="path434-7-0-1-3-5-3"
       sodipodi:nodetypes="cssssssssc" />
    <path
       style="fill:#542044;fill-opacity:1;stroke-width:2.88106"
       d="m 307.54109,146.91473 c -12.15371,-12.54148 -33.26029,6.93871 -28.54141,21.46758 12.93143,39.81443 -42.61958,31.02411 -38.53231,58.95328 1.07366,7.33648 24.40632,8.10914 29.39464,6.96321 17.92237,-4.11723 38.49559,5.82428 53.83513,-9.33015 13.40848,-13.24668 -1.7243,-68.1175 -16.15605,-78.05392 z"
       id="path263" />
    <path
       style="fill:#603040;fill-opacity:1;stroke-width:2.39231"
       d="M 24.700327,-0.66476309 C 12.556353,0.55073631 1.2764469,5.8198279 -7.3169471,14.376114 -20.29569,27.298815 -25.230629,61.96196 -3.7477011,71.361872 24.699744,83.809125 6.4651039,42.256247 27.76303,42.836653 41.552236,43.212434 44.481119,72.85153 65.289624,60.662243 68.913293,58.539557 73.632456,52.495136 73.566019,48.091856 73.445193,40.083198 62.927867,37.1818 62.314679,28.234454 61.807603,20.83545 73.895401,12.230886 66.075507,5.1901529 55.742239,-4.1135305 37.744121,-1.9610293 24.700327,-0.66476309 Z"
       id="path432" />
    <path
       style="fill:#3c0050;fill-opacity:1;stroke-width:2.18374"
       d="M 22.263851,-2.5403782 C 11.178619,-1.4308502 0.88212192,3.3788702 -6.9620781,11.189198 -18.809305,22.985265 -23.314002,54.626394 -3.7040091,63.2068 22.26332,74.568873 5.6184199,36.638673 25.05954,37.168477 37.646571,37.511497 40.320106,64.566586 59.314475,53.43999 62.622223,51.502365 66.929964,45.984911 66.869319,41.96552 66.759021,34.655077 57.158626,32.006627 56.598891,23.839335 56.136024,17.085392 67.169979,9.2309939 60.031848,2.8040888 50.599458,-5.6884752 34.170456,-3.723634 22.263851,-2.5403782 Z"
       id="path432-1" />
    <path
       style="fill:#542044;fill-opacity:1;stroke-width:1.97848"
       d="M 18.523705,-5.9178243 C 8.4804569,-4.9125876 -0.84819408,-0.55497039 -7.9550591,6.5212069 -18.688675,17.208473 -22.769943,45.875413 -5.0032411,53.649282 18.523223,63.943348 3.4429019,29.578494 21.056606,30.058498 32.460485,30.369274 34.882715,54.88125 52.091664,44.800527 55.088486,43.045036 58.99131,38.046208 58.936367,34.404629 58.836438,27.78135 50.138453,25.381849 49.631332,17.982262 49.211977,11.863173 59.208762,4.7470729 52.741599,-1.0757212 44.195835,-8.770007 29.311117,-6.9898561 18.523705,-5.9178243 Z"
       id="path432-1-1" />
    <path
       style="fill:#3c0050;fill-opacity:1;stroke-width:2.74484"
       d="m 286.17966,-9.7509956 c -16.66149,-8.8300914 -68.06453,42.5186046 -45.36364,48.6666416 14.25327,3.860187 29.37957,-14.431892 42.55792,-7.315729 10.53561,5.689134 3.82114,22.813357 14.55305,27.243878 4.99488,2.062067 10.582,-1.514918 16.04773,-0.183547 7.31778,1.782503 14.85059,4.659832 21.23961,-1.494612 2.49609,-2.404441 5.10308,-6.66923 5.13948,-10.200067 0.0586,-5.686848 -6.7641,-10.346074 -7.39455,-16.650494 -0.7337,-7.337029 6.34702,-13.836477 1.94042,-21.055664 -5.7104,-9.3551583 -37.53364,-21.620512 -48.72002,-19.0104066 z"
       id="path438" />
    <path
       style="fill:#582444;fill-opacity:1;stroke-width:2.23002"
       d="m 287.86142,-6.7821261 c -13.53641,-7.1738939 -55.29814,34.5436951 -36.8551,39.5385951 11.57988,3.136152 23.86906,-11.725011 34.57563,-5.943575 8.55952,4.622068 3.10444,18.534421 11.82345,22.133941 4.05801,1.675293 8.5972,-1.230773 13.03776,-0.149123 5.94524,1.448172 12.06517,3.78582 17.25586,-1.214278 2.02791,-1.953451 4.14593,-5.418336 4.17549,-8.28691 0.0477,-4.620213 -5.49539,-8.405538 -6.0076,-13.527486 -0.59609,-5.960873 5.15655,-11.241266 1.57647,-17.1064024 C 322.80404,1.062157 296.94966,-8.9026726 287.86142,-6.7821261 Z"
       id="path438-5" />
    <path
       style="fill:#643440;fill-opacity:1;stroke-width:1.8014"
       d="M 289.25955,-3.7044408 C 278.32488,-9.4994896 244.58989,24.199845 259.48812,28.23471 c 9.35419,2.533372 19.28135,-9.471428 27.93008,-4.801202 6.91435,3.733693 2.50777,14.972046 9.55094,17.879725 3.27805,1.353297 6.94479,-0.994213 10.53187,-0.120459 4.80254,1.169828 9.7462,3.058174 13.93923,-0.98089 1.63814,-1.577992 3.34907,-4.376915 3.37295,-6.69414 0.0385,-3.732192 -4.43917,-6.789967 -4.85293,-10.927459 -0.48151,-4.815175 4.16544,-9.080659 1.27346,-13.8184973 C 317.48608,2.6321457 296.601,-5.4174121 289.25955,-3.7044408 Z"
       id="path438-5-4" />
    <path
       style="fill:#3c0050;fill-opacity:1;stroke-width:2.45476"
       d="m 310.8877,156.5134 c -10.35534,-10.68572 -28.33879,5.912 -24.31815,18.29105 11.01796,33.92312 -36.3132,26.4335 -32.83073,50.23001 0.91479,6.2509 20.79494,6.90924 25.04514,5.93287 15.27041,-3.508 32.79943,4.96246 45.86919,-7.94957 11.42444,-11.28659 -1.46916,-58.03821 -13.76545,-66.50436 z"
       id="path263-4" />
    <path
       style="fill:#603040;fill-opacity:1;stroke-width:1.92814"
       d="m 315.59922,167.86077 c -8.13379,-8.39329 -22.25923,4.6437 -19.10115,14.36704 8.65427,26.64555 -28.52287,20.76268 -25.7875,39.45409 0.71854,4.90988 16.33377,5.427 19.67217,4.66008 11.99443,-2.75542 25.76293,3.89786 36.0288,-6.24413 8.97354,-8.86526 -1.15397,-45.58719 -10.81232,-52.23708 z"
       id="path263-4-5" />
  </g>
</svg>
