<?xml version="1.0" encoding="UTF-8" standalone="no"?>
<!-- Created with Inkscape (http://www.inkscape.org/) -->

<svg
   width="450"
   height="400"
   viewBox="0 0 119.0625 105.83333"
   version="1.1"
   id="svg834"
   xmlns="http://www.w3.org/2000/svg"
   xmlns:svg="http://www.w3.org/2000/svg">
  <defs
     id="defs831" />
  <g
     id="layer1">
    <path
       style="fill:#603040;fill-opacity:1;stroke-width:2.88125"
       d="M 53.617436,9.4734975 C 38.991441,10.937425 25.406104,17.283435 15.056353,27.588492 -0.57502934,43.152376 -6.5185897,84.90011 19.355094,96.221208 53.616737,111.21247 31.655234,61.166865 57.30611,61.8659 c 16.607493,0.452584 20.134997,36.149429 45.1964,21.468851 4.36431,-2.556531 10.04799,-9.836335 9.96797,-15.139568 C 112.32495,58.549682 99.65807,55.055287 98.919556,44.279245 98.308837,35.368008 112.86718,25.004815 103.44903,16.525072 91.003813,5.3198601 69.32717,7.9123048 53.617436,9.4734975 Z"
       id="path432" />
    <path
       style="fill:#3c0050;fill-opacity:1;stroke-width:2.63006"
       d="M 50.682983,7.2145454 C 37.332115,8.5508446 24.93118,14.343587 15.483751,23.750222 1.2151477,37.957213 -4.2102359,76.065268 19.407725,86.399374 50.682344,100.08366 30.635508,54.401151 54.050075,55.039245 69.209683,55.452372 72.429647,88.037069 95.306155,74.636388 99.289951,72.302741 104.47813,65.65761 104.40508,60.816715 104.27223,52.012138 92.709688,48.822392 92.035547,38.98584 91.478074,30.851501 104.76719,21.391789 96.170143,13.651332 84.809927,3.4230297 65.023105,5.7894484 50.682983,7.2145454 Z"
       id="path432-1" />
    <path
       style="fill:#542044;fill-opacity:1;stroke-width:2.38285"
       d="M 46.178412,3.1468045 C 34.082498,4.3574854 22.847213,9.605739 14.287824,18.128165 1.3604324,30.999737 -3.5549796,65.525729 17.842944,74.888454 46.177833,87.286462 28.015338,45.897983 49.229004,46.476098 62.963647,46.850384 65.880938,76.372216 86.607119,64.231151 90.216448,62.116869 94.916935,56.096367 94.850767,51.7105 94.730449,43.733539 84.254707,40.843611 83.643941,31.931676 83.138871,24.56194 95.17884,15.991434 87.389895,8.9785441 77.097508,-0.28832279 59.170602,1.8556586 46.178412,3.1468045 Z"
       id="path432-1-1" />
  </g>
</svg>
