<?xml version="1.0" encoding="UTF-8" standalone="no"?>
<!-- Created with Inkscape (http://www.inkscape.org/) -->

<svg
   width="450"
   height="400"
   viewBox="0 0 119.0625 105.83333"
   version="1.1"
   id="svg334"
   inkscape:version="1.2.2 (732a01da63, 2022-12-09)"
   sodipodi:docname="btr.svg"
   xmlns:inkscape="http://www.inkscape.org/namespaces/inkscape"
   xmlns:sodipodi="http://sodipodi.sourceforge.net/DTD/sodipodi-0.dtd"
   xmlns="http://www.w3.org/2000/svg"
   xmlns:svg="http://www.w3.org/2000/svg">
  <sodipodi:namedview
     id="namedview336"
     pagecolor="#505050"
     bordercolor="#eeeeee"
     borderopacity="1"
     inkscape:showpageshadow="0"
     inkscape:pageopacity="0"
     inkscape:pagecheckerboard="0"
     inkscape:deskcolor="#505050"
     inkscape:document-units="mm"
     showgrid="false"
     inkscape:zoom="0.90028971"
     inkscape:cx="226.59373"
     inkscape:cy="201.60177"
     inkscape:window-width="1368"
     inkscape:window-height="842"
     inkscape:window-x="-6"
     inkscape:window-y="-6"
     inkscape:window-maximized="1"
     inkscape:current-layer="layer1" />
  <defs
     id="defs331" />
  <g
     inkscape:label="Layer 1"
     inkscape:groupmode="layer"
     id="layer1">
    <path
       style="fill:#3c0050;fill-opacity:1;stroke-width:3.04869"
       d="M 76.070184,-12.20178 C 57.564257,-22.009368 0.47087152,35.023654 25.684762,41.852289 41.515879,46.1398 58.316668,25.822773 72.95387,33.726702 c 11.701913,6.318924 4.244142,25.338806 16.164081,30.259793 5.547821,2.29034 11.753429,-1.682621 17.824229,-0.203869 8.12786,1.979821 16.49455,5.175681 23.59084,-1.660062 2.77241,-2.670622 5.668,-7.407521 5.70843,-11.329223 0.0651,-6.316391 -7.51289,-11.491395 -8.21313,-18.493721 -0.81492,-8.149237 7.04964,-15.368178 2.15522,-23.3865327 C 123.84099,-1.4776927 88.494904,-15.100826 76.070184,-12.20178 Z"
       id="path438" />
    <path
       style="fill:#582444;fill-opacity:1;stroke-width:2.47688"
       d="M 77.938116,-8.9042558 C 62.903218,-16.872303 16.51844,29.463449 37.003135,35.011281 c 12.86178,3.483331 26.511378,-13.022974 38.403172,-6.601531 9.507069,5.133731 3.448104,20.586191 13.132314,24.584187 4.507229,1.860743 9.548916,-1.367027 14.481039,-0.165639 6.60339,1.608493 13.4008,4.204919 19.1661,-1.3487 2.2524,-2.169696 4.60489,-6.018147 4.63772,-9.204277 0.053,-5.131664 -6.10373,-9.336028 -6.67264,-15.024982 -0.66208,-6.620745 5.72738,-12.485681 1.75098,-19.0000907 C 116.7489,-0.19160772 88.032431,-11.259547 77.938116,-8.9042558 Z"
       id="path438-5" />
    <path
       style="fill:#643440;fill-opacity:1;stroke-width:2.00081"
       d="M 79.49102,-5.4858698 C 67.345875,-11.922433 29.876402,25.507435 46.423875,29.988965 56.81358,32.802777 67.839682,19.469042 77.445831,24.656264 c 7.679777,4.147018 2.785382,16.629458 10.608236,19.859016 3.640928,1.503109 7.713585,-1.104269 11.697753,-0.133784 5.33419,1.299329 10.82511,3.396708 15.48232,-1.089485 1.81947,-1.752672 3.71981,-4.861442 3.74633,-7.435177 0.0428,-4.145352 -4.9306,-7.541623 -5.39016,-12.137138 -0.53481,-5.348217 4.62656,-10.085893 1.41444,-15.3482117 -4.16251,-6.819305 -27.359576,-15.759951 -35.51373,-13.8573541 z"
       id="path438-5-4" />
  </g>
</svg>
