<?xml version="1.0" encoding="UTF-8" standalone="no"?>
<!-- Created with Inkscape (http://www.inkscape.org/) -->

<svg
   width="450"
   height="400"
   viewBox="0 0 119.0625 105.83333"
   version="1.1"
   id="svg334"
   inkscape:version="1.2.2 (732a01da63, 2022-12-09)"
   sodipodi:docname="blobupright.svg"
   xmlns:inkscape="http://www.inkscape.org/namespaces/inkscape"
   xmlns:sodipodi="http://sodipodi.sourceforge.net/DTD/sodipodi-0.dtd"
   xmlns="http://www.w3.org/2000/svg"
   xmlns:svg="http://www.w3.org/2000/svg">
  <sodipodi:namedview
     id="namedview336"
     pagecolor="#505050"
     bordercolor="#eeeeee"
     borderopacity="1"
     inkscape:showpageshadow="0"
     inkscape:pageopacity="0"
     inkscape:pagecheckerboard="0"
     inkscape:deskcolor="#505050"
     inkscape:document-units="mm"
     showgrid="false"
     inkscape:zoom="0.90028971"
     inkscape:cx="225.48297"
     inkscape:cy="200.49102"
     inkscape:window-width="1368"
     inkscape:window-height="842"
     inkscape:window-x="-6"
     inkscape:window-y="-6"
     inkscape:window-maximized="1"
     inkscape:current-layer="layer1" />
  <defs
     id="defs331" />
  <g
     inkscape:label="Layer 1"
     inkscape:groupmode="layer"
     id="layer1">
    <path
       style="fill:#3c0050;fill-opacity:1;stroke-width:3.04869"
       d="M 57.849197,3.0803377 C 39.34327,-6.7272498 -17.750115,50.305772 7.4637752,57.134407 23.294892,61.421918 40.095681,41.104891 54.732883,49.00882 c 11.701913,6.318924 4.244142,25.338806 16.164081,30.259793 5.547821,2.29034 11.753431,-1.682621 17.824225,-0.203869 8.127865,1.979821 16.494551,5.175681 23.590841,-1.660062 2.77241,-2.670622 5.668,-7.407521 5.70843,-11.329223 0.0651,-6.316391 -7.51289,-11.491395 -8.21313,-18.493721 -0.81492,-8.149237 7.04964,-15.368178 2.15522,-23.386533 C 105.62,13.804425 70.273917,0.18129134 57.849197,3.0803377 Z"
       id="path438" />
    <path
       style="fill:#582444;fill-opacity:1;stroke-width:2.47688"
       d="M 59.717129,6.3778619 C 44.682231,-1.5901853 -1.7025466,44.745567 18.782148,50.293399 31.643928,53.77673 45.293526,37.270425 57.18532,43.691868 c 9.507069,5.133731 3.448104,20.586191 13.132314,24.584187 4.507229,1.860743 9.548916,-1.367027 14.481043,-0.165639 6.603385,1.608493 13.400796,4.204919 19.166093,-1.3487 2.2524,-2.169696 4.60489,-6.018147 4.63772,-9.204277 0.053,-5.131664 -6.10373,-9.336028 -6.67264,-15.024982 -0.66208,-6.620745 5.72738,-12.485681 1.75098,-19.000091 C 98.527918,15.09051 69.811444,4.0225706 59.717129,6.3778619 Z"
       id="path438-5" />
    <path
       style="fill:#643440;fill-opacity:1;stroke-width:2.00081"
       d="M 61.270033,9.7962479 C 49.124888,3.3596852 11.655415,40.789553 28.202888,45.271083 38.592593,48.084895 49.618695,34.75116 59.224844,39.938382 66.904621,44.0854 62.010226,56.56784 69.83308,59.797398 c 3.640928,1.503109 7.713585,-1.104269 11.697753,-0.133784 5.334189,1.299329 10.825109,3.396708 15.482316,-1.089485 1.819478,-1.752672 3.719811,-4.861442 3.746331,-7.435177 0.0428,-4.145352 -4.930592,-7.541623 -5.390155,-12.137138 -0.534813,-5.348217 4.62656,-10.085893 1.414442,-15.348212 C 92.621254,16.834297 69.424187,7.893651 61.270033,9.7962479 Z"
       id="path438-5-4" />
  </g>
</svg>
