<?xml version="1.0" encoding="UTF-8" standalone="no"?>
<!-- Created with Inkscape (http://www.inkscape.org/) -->

<svg
   width="900"
   height="1200"
   viewBox="0 0 238.12542 317.5"
   version="1.1"
   id="svg5"
   xmlns="http://www.w3.org/2000/svg"
   xmlns:svg="http://www.w3.org/2000/svg">
  <defs
     id="defs2" />
  <g
     id="layer1">
    <path
       style="fill:#40084c;fill-opacity:1;stroke-width:3.24001"
       d="m 12.981777,268.29167 c -5.6155549,35.23547 34.548354,50.0601 35.621392,6.0664 1.598285,-65.52841 -20.091192,-174.24254 46.167812,-217.115185 8.998069,-5.82216 21.844939,-10.29087 32.354809,-5.81753 54.83397,23.33914 50.48641,152.700655 53.78985,200.502575 0.52917,7.65721 4.32599,56.59569 22.52392,46.01139 19.39242,-11.27905 16.51712,-58.55113 16.20851,-75.97012 C 218.73465,170.41254 206.14704,85.553595 177.77349,41.532445 137.94327,-20.263568 68.326698,34.212925 48.167625,83.095125 25.878305,137.14278 25.944202,196.8569 12.141797,253.26564 c -1.90266,7.77596 0.923086,14.85172 -1.711071,20.37692"
       id="path312-3" />
    <path
       style="fill:#643440;fill-opacity:1;stroke-width:2.92943"
       d="m 21.598919,269.3127 c -5.077254,31.85784 31.236592,45.2614 32.206772,5.48488 1.445071,-59.24693 -18.165279,-157.53985 41.742218,-196.302769 8.135531,-5.264055 19.750911,-9.304399 29.253321,-5.259868 49.57765,21.101877 45.64684,138.062937 48.63361,181.282627 0.47845,6.9232 3.91131,51.17049 20.36481,41.60079 17.53348,-10.19785 14.93381,-52.93849 14.65478,-68.68771 C 207.62857,180.81615 196.24759,104.09169 170.5939,64.290355 134.58176,8.418036 71.638537,57.672476 53.411892,101.86889 33.259201,150.73559 33.318781,204.72558 20.839459,255.72705 c -1.720273,7.03056 0.8346,13.42805 -1.54705,18.42361"
       id="path312-3-4" />
    <path
       style="fill:#947428;fill-opacity:1;stroke-width:2.72977"
       d="m 27.349497,269.19554 c -4.731201,29.68651 29.107605,42.17653 30.01166,5.11105 1.346579,-55.20885 -16.927193,-146.80244 38.897203,-182.923408 7.58104,-4.90527 18.40475,-8.670243 27.25951,-4.901375 46.1986,19.663643 42.5357,128.653013 45.3189,168.926993 0.44584,6.45134 3.64473,47.68287 18.97681,38.76541 16.33846,-9.50279 13.91597,-49.33037 13.65596,-64.00617 C 200.69997,186.73063 190.09468,115.23546 166.18946,78.146852 132.63179,26.082618 73.978578,71.980034 56.994198,113.16416 38.21505,158.70026 38.270569,209.01047 26.641799,256.53585 c -1.603022,6.55137 0.777716,12.51283 -1.441608,17.16791"
       id="path312-3-4-6" />
  </g>
</svg>
